<?xml version="1.0" standalone="no"?>
<!DOCTYPE svg PUBLIC "-//W3C//DTD SVG 20010904//EN"
 "http://www.w3.org/TR/2001/REC-SVG-20010904/DTD/svg10.dtd">
<svg version="1.0" xmlns="http://www.w3.org/2000/svg"
 width="1024.000000pt" height="1024.000000pt" viewBox="0 0 1024.000000 1024.000000"
 preserveAspectRatio="xMidYMid meet">

<g transform="translate(0.000000,1024.000000) scale(0.100000,-0.100000)"
fill="#000000" stroke="none">
<path d="M2412 7129 c-71 -35 -122 -115 -122 -191 0 -71 59 -163 121 -189 l29
-11 0 -129 0 -128 -357 -3 -358 -3 -62 -26 c-69 -29 -114 -64 -160 -124 -54
-69 -71 -129 -75 -260 l-4 -117 -83 -2 c-78 -2 -86 -4 -107 -30 -23 -26 -24
-32 -24 -216 0 -192 6 -232 39 -246 13 -5 104 -13 168 -14 7 0 11 -27 12 -82
0 -88 15 -143 57 -215 25 -44 107 -116 144 -128 26 -8 26 -22 -1 -30 -58 -19
-157 -146 -184 -238 -11 -38 -15 -117 -16 -346 0 -277 1 -300 20 -352 57 -151
173 -250 331 -282 l65 -13 5 -168 5 -168 29 -25 c23 -20 37 -24 63 -20 36 6
38 7 286 235 l167 152 402 1 c222 0 416 3 431 5 139 23 290 154 333 287 22 67
32 505 15 618 -20 129 -95 253 -188 310 l-34 21 43 27 c59 38 126 113 151 169
14 33 22 76 25 143 l5 97 79 4 c125 7 123 3 123 253 0 250 2 246 -122 250
l-78 3 -5 124 c-5 108 -9 131 -34 185 -35 76 -113 153 -193 191 l-58 27 -362
3 -363 3 1 127 0 127 47 30 c67 43 106 119 98 193 -7 63 -23 97 -63 134 -62
60 -163 75 -241 37z m122 -119 c35 -13 60 -54 52 -85 -17 -68 -87 -86 -138
-35 -35 36 -33 71 8 108 28 24 41 27 78 12z m768 -688 c54 -27 103 -78 129
-136 17 -38 19 -74 19 -461 0 -420 0 -420 -24 -470 -13 -29 -44 -69 -71 -93
-70 -61 -122 -74 -297 -71 -79 1 -397 2 -708 1 -340 -2 -578 1 -598 7 -74 22
-138 79 -171 151 -20 43 -21 64 -21 470 0 424 0 425 24 475 36 79 101 129 191
148 11 2 349 4 750 3 l730 -1 47 -23z m-162 -1372 c128 -24 227 -98 279 -209
l26 -56 0 -290 c0 -282 -1 -291 -23 -332 -35 -66 -79 -110 -140 -140 l-57 -28
-437 -3 -438 -3 -132 -122 c-73 -67 -153 -141 -178 -164 -24 -23 -46 -41 -47
-39 -2 2 -4 75 -6 163 l-2 161 -105 4 c-93 3 -111 7 -158 33 -59 32 -101 75
-134 138 -22 41 -23 50 -23 332 l0 290 26 56 c35 75 96 134 175 171 52 24 84
32 162 37 165 12 1151 13 1212 1z"/>
<path d="M1952 6004 c-64 -32 -108 -83 -127 -148 -54 -181 62 -346 244 -346
155 0 263 107 263 260 1 82 -27 146 -88 198 -77 69 -198 83 -292 36z"/>
<path d="M2835 6011 c-102 -46 -150 -124 -150 -241 1 -87 20 -133 82 -192 49
-47 102 -68 171 -68 76 0 126 17 176 62 120 104 120 292 0 396 -23 21 -60 44
-82 50 -58 18 -151 14 -197 -7z"/>
<path d="M1917 4668 c-27 -22 -31 -61 -7 -91 l21 -27 574 0 574 0 20 26 c25
32 26 52 5 82 l-15 22 -578 0 c-446 0 -581 -3 -594 -12z"/>
<path d="M1911 4354 c-26 -33 -26 -55 -2 -85 l19 -24 417 1 c382 2 418 3 436
20 27 24 25 78 -3 98 -19 14 -78 16 -434 16 l-413 0 -20 -26z"/>
</g>
</svg>
