<?xml version="1.0" standalone="no"?>
<!DOCTYPE svg PUBLIC "-//W3C//DTD SVG 20010904//EN"
 "http://www.w3.org/TR/2001/REC-SVG-20010904/DTD/svg10.dtd">
<svg version="1.0" xmlns="http://www.w3.org/2000/svg"
 width="60.000000pt" height="60.000000pt" viewBox="0 0 1020.000000 1020.000000"
 preserveAspectRatio="xMidYMid meet">

<g transform="translate(0.000000,1024.000000) scale(0.100000,-0.100000)"
fill="#000000" stroke="none">
<path d="M3040 6060 l0 -650 123 0 122 0 3 650 2 650 -125 0 -125 0 0 -650z"/>
<path d="M5580 6055 l0 -645 333 0 c267 0 344 3 392 15 123 32 205 98 253 204
20 44 26 71 26 132 0 133 -67 237 -186 291 l-48 21 48 28 c104 59 147 142 140
266 -8 132 -70 224 -192 283 -34 17 -85 34 -115 40 -29 5 -188 10 -352 10
l-299 0 0 -645z m603 411 c51 -19 73 -40 93 -92 20 -54 13 -102 -23 -145 -49
-58 -89 -69 -265 -69 l-158 0 0 160 0 160 158 0 c106 -1 169 -5 195 -14z m28
-521 c76 -27 119 -85 119 -161 0 -56 -27 -101 -79 -132 -45 -26 -48 -27 -231
-27 l-185 0 -3 168 -2 167 169 0 c126 0 179 -4 212 -15z"/>
<path d="M1907 6684 c-4 -4 -7 -293 -7 -641 l0 -634 358 3 c337 3 360 4 414
24 124 47 204 130 234 241 42 153 -29 304 -173 370 l-56 26 39 19 c97 47 147
132 147 249 -1 162 -97 275 -278 326 -54 15 -664 30 -678 17z m610 -231 c53
-27 76 -63 81 -125 5 -67 -23 -113 -88 -145 -40 -21 -58 -23 -202 -23 l-158 0
0 158 0 157 165 -1 c141 -2 170 -5 202 -21z m49 -527 c42 -19 55 -32 74 -71
38 -78 16 -151 -60 -202 -31 -22 -42 -23 -231 -23 l-199 0 0 160 0 160 183 0
c171 0 185 -2 233 -24z"/>
<path d="M7870 6481 c0 -148 6 -141 -107 -141 l-63 0 0 -100 0 -100 85 0 85 0
0 -258 c0 -303 5 -328 80 -403 61 -61 120 -79 244 -78 50 1 105 4 121 8 l30 6
0 98 1 97 -73 0 c-81 0 -136 17 -152 48 -7 13 -11 105 -11 251 l0 231 110 0
110 0 0 100 0 100 -110 0 -110 0 0 135 0 135 -120 0 -120 0 0 -129z"/>
<path d="M3750 6341 c-212 -68 -330 -234 -330 -465 0 -152 35 -249 127 -347
50 -54 153 -111 232 -129 78 -18 240 -8 313 20 127 48 223 148 269 281 30 87
31 246 1 336 -49 153 -169 269 -317 307 -80 21 -225 20 -295 -3z m258 -210
c116 -59 170 -213 126 -362 -29 -98 -135 -179 -235 -179 -90 0 -177 59 -219
147 -30 65 -37 164 -16 237 21 73 99 157 161 174 55 15 134 8 183 -17z"/>
<path d="M4795 6346 c-73 -18 -127 -49 -184 -106 -178 -178 -176 -529 5 -700
81 -77 147 -103 269 -108 123 -5 189 16 259 82 l46 42 0 -62 c0 -82 -22 -140
-73 -192 -103 -105 -301 -96 -479 22 l-27 18 -41 -88 -41 -88 23 -18 c40 -32
161 -85 233 -104 43 -10 109 -17 170 -18 217 0 367 90 437 261 23 58 23 61 26
558 l3 500 -111 0 -110 0 0 -53 0 -53 -57 41 c-100 72 -227 96 -348 66z m223
-198 c60 -15 145 -96 161 -154 19 -68 14 -163 -13 -220 -93 -200 -384 -169
-436 47 -31 127 18 256 115 306 65 34 103 39 173 21z"/>
<path d="M7031 6344 c-158 -42 -274 -156 -323 -317 -28 -93 -22 -262 12 -350
41 -108 147 -213 259 -258 79 -31 263 -39 347 -14 83 24 152 66 211 128 88 93
126 199 126 347 -1 228 -137 410 -348 465 -73 19 -212 18 -284 -1z m259 -217
c128 -66 176 -250 103 -395 -96 -192 -356 -186 -443 11 -109 247 114 500 340
384z"/>
<path d="M6538 5014 c-32 -17 -68 -81 -68 -119 0 -40 37 -103 70 -120 43 -22
116 -19 151 6 80 57 78 179 -4 229 -38 24 -110 26 -149 4z"/>
<path d="M2891 4999 c-67 -13 -164 -63 -215 -109 -25 -23 -58 -68 -73 -99 -25
-50 -28 -67 -28 -161 0 -91 3 -111 24 -150 71 -134 161 -186 442 -255 102 -24
156 -43 184 -63 76 -53 81 -148 11 -210 -103 -90 -347 -58 -534 70 -24 17 -46
27 -50 23 -4 -3 -33 -48 -64 -98 l-58 -92 38 -34 c44 -40 172 -103 262 -127
93 -26 322 -26 405 0 87 26 151 62 207 114 74 69 101 128 106 234 12 228 -107
335 -452 409 -182 38 -255 88 -263 176 -18 185 283 218 536 58 24 -14 44 -25
45 -23 2 2 24 47 49 100 l45 97 -47 30 c-71 46 -168 87 -248 105 -77 17 -246
20 -322 5z"/>
<path d="M6077 4993 c-4 -3 -7 -109 -7 -235 l0 -228 -44 34 c-72 55 -127 71
-241 71 -92 0 -106 -3 -168 -32 -123 -58 -217 -180 -246 -321 -16 -75 -14
-208 4 -275 40 -156 134 -259 276 -307 52 -18 81 -21 164 -18 113 3 161 21
228 86 21 21 38 33 37 27 -2 -5 -2 -31 -1 -57 l1 -48 115 0 115 0 0 655 0 655
-113 0 c-63 0 -117 -3 -120 -7z m-123 -587 c83 -49 135 -167 123 -282 -25
-240 -281 -335 -420 -156 -81 105 -73 302 17 400 66 73 191 90 280 38z"/>
<path d="M3770 4883 c-1 -5 -2 -64 -3 -133 l-2 -125 -87 -3 -88 -3 0 -99 0
-100 89 0 90 0 1 -262 c0 -145 5 -279 10 -298 21 -78 78 -136 159 -165 44 -15
205 -19 266 -6 l30 6 0 95 0 95 -93 5 c-143 8 -144 10 -140 320 l3 205 108 3
107 3 0 99 0 100 -110 0 -110 0 0 135 0 135 -115 0 c-63 0 -115 -3 -115 -7z"/>
<path d="M7190 4621 c-164 -53 -265 -156 -314 -320 -23 -77 -21 -232 3 -310
50 -161 187 -280 356 -312 83 -15 218 -6 285 20 123 47 224 147 271 269 26 70
37 222 20 303 -36 174 -165 310 -336 355 -72 20 -218 17 -285 -5z m248 -205
c50 -26 100 -85 123 -145 45 -119 8 -283 -78 -348 -126 -96 -309 -43 -370 107
-24 59 -24 199 0 252 44 99 142 162 238 155 31 -3 70 -12 87 -21z"/>
<path d="M4362 4270 l3 -355 28 -57 c58 -119 168 -180 322 -182 79 -1 98 3
150 27 33 15 77 44 98 65 l37 36 0 -57 0 -57 115 0 115 0 0 465 0 465 -120 0
-120 0 0 -298 c0 -293 0 -300 -23 -343 -34 -64 -74 -84 -172 -84 -92 0 -136
20 -170 77 -19 31 -20 51 -20 340 l0 307 -123 3 -123 3 3 -355z"/>
<path d="M6490 4158 l0 -468 118 0 117 0 0 464 0 465 -118 3 -117 3 0 -467z"/>
</g>
</svg>
